<?xml version="1.0" encoding="UTF-8" standalone="no"?>
<svg
   xmlns:dc="http://purl.org/dc/elements/1.1/"
   xmlns:cc="http://creativecommons.org/ns#"
   xmlns:rdf="http://www.w3.org/1999/02/22-rdf-syntax-ns#"
   xmlns:svg="http://www.w3.org/2000/svg"
   xmlns="http://www.w3.org/2000/svg"
   version="1.1"
   id="svg2"
   xml:space="preserve"
   width="416"
   height="186.66667"
   viewBox="0 0 416 186.66667"><metadata
     id="metadata8"><rdf:RDF><cc:Work
         rdf:about=""><dc:format>image/svg+xml</dc:format><dc:type
           rdf:resource="http://purl.org/dc/dcmitype/StillImage" /></cc:Work></rdf:RDF></metadata><defs
     id="defs6"><clipPath
       clipPathUnits="userSpaceOnUse"
       id="clipPath74"><path
         d="M -10,-10 V 40 H 40 V -10 Z"
         id="path72" /></clipPath><pattern
       patternTransform="matrix(10,0,0,10,-0.0390625,-0.0390625)"
       patternUnits="userSpaceOnUse"
       x="0"
       y="0"
       width="4.98138"
       height="4.98138"
       id="pattern84"><g
         transform="scale(0.1)"
         id="g82"><g
           id="g80"><g
             clip-path="url(#clipPath74)"
             id="g78"><path
               d="M 0,0 30.8828,30.8828"
               style="fill:none;stroke:#00b0f0;stroke-opacity:1;stroke-width:3.985;stroke-linecap:butt;stroke-linejoin:miter;stroke-miterlimit:10;stroke-dasharray:none"
               id="path76" /></g></g></g></pattern><clipPath
       clipPathUnits="userSpaceOnUse"
       id="clipPath104"><path
         d="M -10,-10 V 40 H 40 V -10 Z"
         id="path102" /></clipPath><pattern
       patternTransform="matrix(10,0,0,10,-0.0390625,-0.0390625)"
       patternUnits="userSpaceOnUse"
       x="0"
       y="0"
       width="4.98138"
       height="4.98138"
       id="pattern114"><g
         transform="scale(0.1)"
         id="g112"><g
           id="g110"><g
             clip-path="url(#clipPath104)"
             id="g108"><path
               d="M 0,0 30.8828,30.8828"
               style="fill:none;stroke:#ffd700;stroke-opacity:1;stroke-width:3.985;stroke-linecap:butt;stroke-linejoin:miter;stroke-miterlimit:10;stroke-dasharray:none"
               id="path106" /></g></g></g></pattern></defs><g
     id="g10"
     transform="matrix(1.3333333,0,0,-1.3333333,0,186.66667)"><g
       id="g12"
       transform="scale(0.1)"><path
         d="m 568.137,1185.94 h 1984.28 v 212.602 H 568.137 Z"
         style="fill:#ff8080;fill-opacity:1;fill-rule:nonzero;stroke:none"
         id="path14" /><path
         d="m 568.137,1185.94 h 1984.28 v 212.602 H 568.137 Z"
         style="fill:none;stroke:#ffffff;stroke-width:3.985;stroke-linecap:butt;stroke-linejoin:miter;stroke-miterlimit:10;stroke-dasharray:none;stroke-opacity:1"
         id="path16" /><path
         d="m 995.094,1312.42 c 0,2.14 0,2.75 -1.188,2.75 -0.953,0 -3.218,-2.62 -4.047,-3.7 -3.703,2.98 -7.39,3.7 -11.203,3.7 -14.437,0 -18.718,-7.87 -18.718,-14.44 0,-1.29 0,-5.46 4.531,-9.65 3.812,-3.33 7.859,-4.17 13.344,-5.24 6.562,-1.31 8.109,-1.67 11.093,-4.06 2.141,-1.78 3.688,-4.4 3.688,-7.73 0,-5.14 -2.985,-10.86 -13.469,-10.86 -7.859,0 -13.594,4.53 -16.219,16.45 -0.468,2.14 -0.468,2.27 -0.593,2.39 -0.235,0.47 -0.704,0.47 -1.063,0.47 -1.312,0 -1.312,-0.59 -1.312,-2.73 v -16.22 c 0,-2.14 0,-2.74 1.187,-2.74 0.594,0 0.719,0.11 2.75,2.63 0.594,0.83 0.594,1.06 2.375,2.97 4.531,-5.6 10.969,-5.6 13,-5.6 12.516,0 18.703,6.91 18.703,16.33 0,6.44 -3.922,10.25 -5,11.33 -4.297,3.69 -7.515,4.41 -15.375,5.83 -3.578,0.72 -12.281,2.39 -12.281,9.54 0,3.69 2.5,9.18 13.234,9.18 12.985,0 13.703,-11.08 13.953,-14.79 0.11,-0.95 0.954,-0.95 1.297,-0.95 1.313,0 1.313,0.6 1.313,2.75 v 12.39"
         style="fill:#3e3e3e;fill-opacity:1;fill-rule:nonzero;stroke:none"
         id="path18" /><path
         d="m 1050.28,1301.81 c 3.22,7.99 8.81,8.11 11.08,8.11 v 3.46 c -3.45,-0.24 -5.13,-0.24 -8.94,-0.24 -2.73,0 -2.98,0 -9.65,0.24 v -3.46 c 4.4,-0.23 5.48,-2.98 5.48,-5.12 0,-1.08 -0.23,-1.67 -0.72,-2.86 l -12.15,-30.05 -13.24,32.42 c -0.7,1.67 -0.7,2.39 -0.7,2.52 0,3.09 4.17,3.09 6.54,3.09 v 3.46 c -3.09,-0.24 -8.93,-0.24 -12.28,-0.24 -4.53,0 -4.76,0 -11.56,0.24 v -3.46 c 6.92,0 7.88,-0.59 9.42,-4.29 l 17.77,-43.63 c -5.25,-12.64 -5.25,-12.87 -5.72,-13.83 -2.03,-3.58 -5.25,-8.11 -10.61,-8.11 -3.7,0 -5.97,2.16 -5.97,2.16 0,0 4.17,0.47 4.17,4.64 0,2.86 -2.26,4.41 -4.4,4.41 -2.03,0 -4.53,-1.19 -4.53,-4.64 0,-4.54 4.4,-8.94 10.73,-8.94 6.67,0 11.56,5.83 14.66,13.34 l 20.62,50.78"
         style="fill:#3e3e3e;fill-opacity:1;fill-rule:nonzero;stroke:none"
         id="path20" /><path
         d="m 1116.05,1290.97 c 0,11.08 0,14.42 -2.75,18.23 -3.46,4.66 -9.05,5.36 -13.11,5.36 -11.56,0 -16.1,-9.89 -17.05,-12.26 h -0.11 v 12.26 l -16.22,-1.29 v -3.47 c 8.11,0 9.07,-0.83 9.07,-6.67 v -32.3 c 0,-5.38 -1.32,-5.38 -9.07,-5.38 V 1262 c 3.1,0.23 9.53,0.23 12.88,0.23 3.45,0 9.89,0 13,-0.23 v 3.45 c -7.64,0 -9.06,0 -9.06,5.38 V 1293 c 0,12.52 8.21,19.19 15.6,19.19 7.4,0 9.07,-6.08 9.07,-13.36 v -28 c 0,-5.38 -1.32,-5.38 -9.07,-5.38 V 1262 c 3.11,0.23 9.55,0.23 12.88,0.23 3.45,0 9.89,0 13,-0.23 v 3.45 c -5.97,0 -8.94,0 -9.06,3.58 v 21.94"
         style="fill:#3e3e3e;fill-opacity:1;fill-rule:nonzero;stroke:none"
         id="path22" /><path
         d="m 1144.03,1309.92 h 16.8 v 3.46 h -16.8 v 21.93 h -2.62 c -0.13,-11.2 -4.41,-22.65 -15.27,-23.01 v -2.38 h 10.14 v -33.14 c 0,-13.23 8.81,-15.97 15.14,-15.97 7.5,0 11.44,7.39 11.44,15.97 v 6.8 h -2.63 v -6.56 c 0,-8.58 -3.45,-13.58 -8.1,-13.58 -8.1,0 -8.1,11.08 -8.1,13.11 v 33.37"
         style="fill:#3e3e3e;fill-opacity:1;fill-rule:nonzero;stroke:none"
         id="path24" /><path
         d="m 1223.05,1290.97 c 0,11.08 0,14.42 -2.75,18.23 -3.46,4.66 -9.05,5.36 -13.11,5.36 -10.25,0 -15.02,-7.73 -16.69,-11.43 h -0.11 v 41.6 l -16.58,-1.31 v -3.47 c 8.11,0 9.07,-0.82 9.07,-6.67 v -62.45 c 0,-5.38 -1.32,-5.38 -9.07,-5.38 V 1262 c 3.1,0.23 9.53,0.23 12.88,0.23 3.45,0 9.89,0 13,-0.23 v 3.45 c -7.64,0 -9.06,0 -9.06,5.38 V 1293 c 0,12.52 8.21,19.19 15.6,19.19 7.4,0 9.07,-6.08 9.07,-13.36 v -28 c 0,-5.38 -1.32,-5.38 -9.07,-5.38 V 1262 c 3.11,0.23 9.55,0.23 12.88,0.23 3.45,0 9.89,0 13,-0.23 v 3.45 c -5.97,0 -8.94,0 -9.06,3.58 v 21.94"
         style="fill:#3e3e3e;fill-opacity:1;fill-rule:nonzero;stroke:none"
         id="path26" /><path
         d="m 1280.66,1289.66 c 2.62,0 2.86,0 2.86,2.26 0,12.03 -6.44,23.25 -20.86,23.25 -13.6,0 -24.08,-12.28 -24.08,-27.06 0,-15.73 12.15,-27.3 25.39,-27.3 14.19,0 19.55,12.88 19.55,15.38 0,0.72 -0.6,1.19 -1.32,1.19 -0.95,0 -1.18,-0.6 -1.42,-1.19 -3.11,-10.02 -11.09,-12.75 -16.09,-12.75 -5.02,0 -17.05,3.33 -17.05,23.95 v 2.27 z m -32.91,2.26 c 0.95,18.72 11.45,20.86 14.78,20.86 12.77,0 13.47,-16.81 13.6,-20.86 h -28.38"
         style="fill:#3e3e3e;fill-opacity:1;fill-rule:nonzero;stroke:none"
         id="path28" /><path
         d="m 1306.03,1309.92 h 16.8 v 3.46 h -16.8 v 21.93 h -2.62 c -0.13,-11.2 -4.41,-22.65 -15.27,-23.01 v -2.38 h 10.14 v -33.14 c 0,-13.23 8.81,-15.97 15.14,-15.97 7.5,0 11.44,7.39 11.44,15.97 v 6.8 h -2.63 v -6.56 c 0,-8.58 -3.45,-13.58 -8.1,-13.58 -8.1,0 -8.1,11.08 -8.1,13.11 v 33.37"
         style="fill:#3e3e3e;fill-opacity:1;fill-rule:nonzero;stroke:none"
         id="path30" /><path
         d="m 1352.73,1335.44 c 0,3.09 -2.5,5.83 -5.82,5.83 -3.11,0 -5.74,-2.5 -5.74,-5.72 0,-3.58 2.88,-5.85 5.74,-5.85 3.68,0 5.82,3.11 5.82,5.74 z m -16.43,-22.17 v -3.47 c 7.62,0 8.7,-0.72 8.7,-6.55 v -32.42 c 0,-5.38 -1.31,-5.38 -9.06,-5.38 V 1262 c 3.33,0.23 9.06,0.23 12.51,0.23 1.32,0 8.22,0 12.28,-0.23 v 3.45 c -7.75,0 -8.23,0.6 -8.23,5.25 v 43.86 l -16.2,-1.29"
         style="fill:#3e3e3e;fill-opacity:1;fill-rule:nonzero;stroke:none"
         id="path32" /><path
         d="m 1407.16,1306.11 c -1.44,0 -5.85,0 -5.85,-4.89 0,-2.86 2.03,-4.89 4.89,-4.89 2.74,0 5,1.67 5,5.12 0,7.99 -8.34,13.72 -18,13.72 -13.93,0 -25.03,-12.4 -25.03,-27.42 0,-15.27 11.44,-26.94 24.91,-26.94 15.75,0 19.31,14.3 19.31,15.38 0,1.08 -0.83,1.08 -1.19,1.08 -1.07,0 -1.18,-0.36 -1.54,-1.8 -2.63,-8.47 -9.07,-12.03 -15.5,-12.03 -7.27,0 -16.93,6.31 -16.93,24.44 0,19.78 10.13,24.67 16.1,24.67 4.53,0 11.08,-1.8 13.83,-6.44"
         style="fill:#3e3e3e;fill-opacity:1;fill-rule:nonzero;stroke:none"
         id="path34" /><path
         d="m 1537.75,1289.89 c 0.47,1.08 0.47,1.31 0.47,1.44 0,1.19 -1.19,1.19 -1.55,1.19 -0.59,0 -0.95,0 -1.31,-0.36 -0.23,-0.24 -1.19,-2.63 -1.78,-3.94 -6.56,-15.97 -11.45,-22.77 -29.2,-22.77 h -14.55 c -3.45,0 -3.58,0.13 -3.58,1.44 0,0.47 0,0.72 0.48,2.38 l 8.22,33.14 h 10.38 c 7.98,0 8.94,-1.91 8.94,-5.24 0,-2.15 -0.83,-5.48 -1.08,-6.44 0,-0.25 -0.24,-0.71 -0.24,-1.07 0,-1.19 1.19,-1.19 1.68,-1.19 1.42,0 1.54,0.47 1.9,2.01 l 6.67,26.47 c 0.13,0.49 0.24,1.19 0.24,1.68 0,1.18 -1.19,1.18 -1.55,1.18 -1.42,0 -1.55,-0.36 -1.91,-2.03 -2.37,-9.05 -4.53,-11.9 -14.29,-11.9 h -9.91 l 7.39,29.56 c 1.08,4.17 1.91,4.28 5.74,4.28 h 14.89 c 14.31,0 15.62,-4.89 15.62,-12.16 0,-1.08 0,-3.45 -0.59,-7.26 0,-0.61 -0.25,-1.8 -0.25,-2.39 0,-1.32 1.08,-1.32 1.67,-1.32 1.44,0 1.44,0.36 1.8,2.5 l 2.86,21.11 c 0,0.36 0.23,1.32 0.23,1.66 0,1.31 -0.95,1.31 -2.98,1.31 h -53.77 c -2.01,0 -3.09,0 -3.09,-2.26 0,-1.19 0.95,-1.19 2.86,-1.19 6.56,0 6.56,-0.95 6.56,-2.14 0,-0.36 0,-0.6 -0.49,-2.27 l -16.09,-64.73 c -1.06,-4.17 -1.78,-5.13 -9.05,-5.13 -2.15,0 -3.21,0 -3.21,-2.26 0,-1.19 0.95,-1.19 2.85,-1.19 h 55.32 c 2.37,0 2.5,0.13 3.22,1.91 l 10.48,25.98"
         style="fill:#3e3e3e;fill-opacity:1;fill-rule:nonzero;stroke:none"
         id="path36" /><path
         d="m 1562.16,1268.91 c 0,3.57 -2.75,4.65 -4.77,4.65 -3.34,0 -7.05,-3.22 -7.05,-6.9 0,-2.63 1.93,-4.66 4.79,-4.66 3.21,0 7.03,2.98 7.03,6.91"
         style="fill:#3e3e3e;fill-opacity:1;fill-rule:nonzero;stroke:none"
         id="path38" /><path
         d="m 1666.27,1306.47 c -2.99,-0.13 -5.61,-2.39 -5.61,-5.25 0,-2.99 2.62,-3.58 3.68,-3.58 1.21,0 5.61,0.72 5.61,6.92 0,5.6 -5,10 -12.28,10 -14.54,0 -29.56,-16.79 -29.56,-34.43 0,-12.18 7.28,-19.32 16.81,-19.32 14.78,0 24.55,12.03 24.55,13.71 0,0.82 -0.95,1.78 -1.66,1.78 -0.36,0 -0.48,-0.11 -1.43,-1.19 -6.32,-8.58 -15.25,-11.92 -21.33,-11.92 -6.1,0 -9.32,5.37 -9.32,12.4 0,5.49 2.88,18.6 6.8,25.39 4.06,7.15 9.91,11.21 15.03,11.21 0.71,0 7.03,0 8.71,-5.72"
         style="fill:#3e3e3e;fill-opacity:1;fill-rule:nonzero;stroke:none"
         id="path40" /><path
         d="m 1722.25,1295.27 c 0,12.39 -7.64,19.29 -16.58,19.29 -14.54,0 -29.56,-16.79 -29.56,-34.43 0,-12.88 7.98,-19.32 16.58,-19.32 14.53,0 29.56,17.05 29.56,34.46 z m -29.45,-32.08 c -5,0 -9.07,4.29 -9.07,12.4 0,5.49 2.88,18.6 6.8,25.39 4.42,7.63 10.5,11.21 14.91,11.21 6.08,0 9.17,-5.61 9.17,-12.41 0,-5.12 -2.86,-18.59 -6.67,-25.14 -4.89,-8.47 -10.97,-11.45 -15.14,-11.45"
         style="fill:#3e3e3e;fill-opacity:1;fill-rule:nonzero;stroke:none"
         id="path42" /><path
         d="m 1758.52,1341.98 c 0.12,0.72 0.36,1.19 0.36,1.55 0,1.08 -0.83,1.2 -2.74,1.08 l -11.92,-1.08 c -1.67,-0.11 -2.74,-0.23 -2.74,-2.37 0,-1.21 0.96,-1.21 2.61,-1.21 5.97,0 5.97,-1.06 5.97,-2.26 0,-0.47 -0.23,-1.66 -0.36,-2.14 l -15.01,-60.08 c -0.25,-1.08 -0.6,-2.38 -0.6,-4.17 0,-6.32 4.05,-10.49 9.54,-10.49 4.04,0 6.43,2.74 8.1,6.08 2.15,3.94 3.82,11.67 3.82,12.03 0,1.21 -0.96,1.21 -1.55,1.21 -0.48,0 -1.31,0 -1.56,-0.72 -0.11,-0.36 -0.6,-2.14 -0.96,-3.22 -1.54,-5.85 -3.57,-13 -7.62,-13 -2.63,0 -3.22,2.51 -3.22,4.76 0,1.57 0.59,4.89 0.95,6.44 l 16.93,67.59"
         style="fill:#3e3e3e;fill-opacity:1;fill-rule:nonzero;stroke:none"
         id="path44" /><path
         d="m 1791.03,1336.27 c 0,2.26 -1.67,3.57 -3.7,3.57 -2.14,0 -5.25,-1.9 -5.25,-5.25 0,-2.62 1.92,-3.57 3.7,-3.57 2.39,0 5.25,2.15 5.25,5.25 z m -21.94,-60.8 c -0.95,-2.63 -0.95,-4.17 -0.95,-5.25 0,-6.91 4.64,-9.41 8.58,-9.41 10.97,0 14.78,17.75 14.78,18.24 0,1.08 -1.06,1.08 -1.55,1.08 -1.43,0 -1.54,-0.36 -2.03,-2.16 -1.06,-4.05 -4.17,-14.78 -10.97,-14.78 -1.29,0 -2.73,0.59 -2.73,3.47 0,3.09 1.67,7.39 3.81,13.22 l 7.03,19.31 c 1.08,2.98 1.32,3.94 1.32,6.08 0,6.07 -3.94,9.29 -8.58,9.29 -10.97,0 -14.91,-17.64 -14.91,-18.23 0,-1.06 1.08,-1.06 1.67,-1.06 1.44,0 1.55,0.34 2.03,2.01 0.96,3.81 4.05,14.91 10.97,14.91 2.61,0 2.61,-2.27 2.61,-3.58 0,-3.09 -0.7,-5.13 -1.54,-7.27 l -9.54,-25.87"
         style="fill:#3e3e3e;fill-opacity:1;fill-rule:nonzero;stroke:none"
         id="path46" /><path
         d="m 1882.16,1306.11 c -1.44,0 -5.85,0 -5.85,-4.89 0,-2.86 2.03,-4.89 4.89,-4.89 2.74,0 5,1.67 5,5.12 0,7.99 -8.34,13.72 -18,13.72 -13.93,0 -25.03,-12.4 -25.03,-27.42 0,-15.27 11.44,-26.94 24.91,-26.94 15.75,0 19.31,14.3 19.31,15.38 0,1.08 -0.83,1.08 -1.19,1.08 -1.07,0 -1.18,-0.36 -1.54,-1.8 -2.63,-8.47 -9.07,-12.03 -15.5,-12.03 -7.27,0 -16.93,6.31 -16.93,24.44 0,19.78 10.13,24.67 16.1,24.67 4.53,0 11.08,-1.8 13.83,-6.44"
         style="fill:#3e3e3e;fill-opacity:1;fill-rule:nonzero;stroke:none"
         id="path48" /><path
         d="m 1945.72,1287.52 c 0,15.37 -11.69,27.65 -25.52,27.65 -14.29,0 -25.62,-12.64 -25.62,-27.65 0,-15.27 11.92,-26.71 25.5,-26.71 14.08,0 25.64,11.67 25.64,26.71 z m -25.52,-24.08 c -4.4,0 -9.76,1.9 -13.23,7.73 -3.22,5.38 -3.33,12.41 -3.33,17.41 0,4.53 0,11.81 3.69,17.17 3.34,5.13 8.58,7.03 12.75,7.03 4.65,0 9.65,-2.14 12.87,-6.8 3.71,-5.48 3.71,-12.98 3.71,-17.4 0,-4.17 0,-11.56 -3.1,-17.16 -3.34,-5.72 -8.83,-7.98 -13.36,-7.98"
         style="fill:#3e3e3e;fill-opacity:1;fill-rule:nonzero;stroke:none"
         id="path50" /><path
         d="m 1970.5,1344.73 -16.56,-1.31 v -3.47 c 8.11,0 9.06,-0.82 9.06,-6.67 v -62.45 c 0,-5.38 -1.31,-5.38 -9.06,-5.38 V 1262 c 3.33,0.23 9.17,0.23 12.75,0.23 3.58,0 9.53,0 12.87,-0.23 v 3.45 c -7.62,0 -9.06,0 -9.06,5.38 v 73.9"
         style="fill:#3e3e3e;fill-opacity:1;fill-rule:nonzero;stroke:none"
         id="path52" /><path
         d="m 2036.72,1287.52 c 0,15.37 -11.69,27.65 -25.52,27.65 -14.29,0 -25.62,-12.64 -25.62,-27.65 0,-15.27 11.92,-26.71 25.5,-26.71 14.08,0 25.64,11.67 25.64,26.71 z m -25.52,-24.08 c -4.4,0 -9.76,1.9 -13.23,7.73 -3.22,5.38 -3.33,12.41 -3.33,17.41 0,4.53 0,11.81 3.69,17.17 3.34,5.13 8.58,7.03 12.75,7.03 4.65,0 9.65,-2.14 12.87,-6.8 3.71,-5.48 3.71,-12.98 3.71,-17.4 0,-4.17 0,-11.56 -3.1,-17.16 -3.34,-5.72 -8.83,-7.98 -13.36,-7.98"
         style="fill:#3e3e3e;fill-opacity:1;fill-rule:nonzero;stroke:none"
         id="path54" /><path
         d="m 2094.05,1290.97 c 0,11.08 0,14.42 -2.75,18.23 -3.46,4.66 -9.05,5.36 -13.11,5.36 -11.56,0 -16.1,-9.89 -17.05,-12.26 h -0.11 v 12.26 l -16.22,-1.29 v -3.47 c 8.11,0 9.07,-0.83 9.07,-6.67 v -32.3 c 0,-5.38 -1.32,-5.38 -9.07,-5.38 V 1262 c 3.1,0.23 9.53,0.23 12.88,0.23 3.45,0 9.89,0 13,-0.23 v 3.45 c -7.64,0 -9.06,0 -9.06,5.38 V 1293 c 0,12.52 8.21,19.19 15.6,19.19 7.4,0 9.07,-6.08 9.07,-13.36 v -28 c 0,-5.38 -1.32,-5.38 -9.07,-5.38 V 1262 c 3.11,0.23 9.55,0.23 12.88,0.23 3.45,0 9.89,0 13,-0.23 v 3.45 c -5.97,0 -8.94,0 -9.06,3.58 v 21.94"
         style="fill:#3e3e3e;fill-opacity:1;fill-rule:nonzero;stroke:none"
         id="path56" /><path
         d="m 2150.28,1301.81 c 3.22,7.99 8.81,8.11 11.08,8.11 v 3.46 c -3.45,-0.24 -5.13,-0.24 -8.94,-0.24 -2.73,0 -2.98,0 -9.65,0.24 v -3.46 c 4.4,-0.23 5.48,-2.98 5.48,-5.12 0,-1.08 -0.23,-1.67 -0.72,-2.86 l -12.15,-30.05 -13.24,32.42 c -0.7,1.67 -0.7,2.39 -0.7,2.52 0,3.09 4.17,3.09 6.54,3.09 v 3.46 c -3.09,-0.24 -8.93,-0.24 -12.28,-0.24 -4.53,0 -4.76,0 -11.56,0.24 v -3.46 c 6.92,0 7.88,-0.59 9.42,-4.29 l 17.77,-43.63 c -5.25,-12.64 -5.25,-12.87 -5.72,-13.83 -2.03,-3.58 -5.25,-8.11 -10.61,-8.11 -3.7,0 -5.97,2.16 -5.97,2.16 0,0 4.17,0.47 4.17,4.64 0,2.86 -2.26,4.41 -4.4,4.41 -2.03,0 -4.53,-1.19 -4.53,-4.64 0,-4.54 4.4,-8.94 10.73,-8.94 6.67,0 11.56,5.83 14.66,13.34 l 20.62,50.78"
         style="fill:#3e3e3e;fill-opacity:1;fill-rule:nonzero;stroke:none"
         id="path58" /><path
         d="M 1.19922,193.801 H 3119.3492 v 992.137 H 1.19922 Z"
         style="fill:#fff8ea;fill-opacity:1;fill-rule:nonzero;stroke:none"
         id="path60" /><path
         d="M 1.19922,193.801 H 3119.3492 v 992.137 H 1.19922 Z"
         style="fill:none;stroke:#ffffff;stroke-width:3.985;stroke-linecap:butt;stroke-linejoin:miter;stroke-miterlimit:10;stroke-dasharray:none;stroke-opacity:1"
         id="path62" /><path
         d="m 1481.13,743.969 c -0.47,1.422 -0.71,2.14 -2.38,2.14 -1.67,0 -1.91,-0.359 -2.5,-2.265 l -24.92,-71.281 c -1.67,-4.891 -5,-7.985 -12.63,-8.11 V 661 c 7.27,0.234 7.5,0.234 11.44,0.234 3.34,0 9.06,0 12.16,-0.234 v 3.453 c -5,0.125 -7.99,2.625 -7.99,5.969 0,0.703 0,0.953 0.6,2.5 l 5.48,15.859 h 30.05 l 6.54,-18.718 c 0.6,-1.438 0.6,-1.672 0.6,-2.032 0,-3.578 -6.08,-3.578 -9.06,-3.578 V 661 c 2.75,0.234 12.17,0.234 15.5,0.234 3.34,0 11.92,0 14.67,-0.234 v 3.453 c -7.75,0 -9.91,0 -11.56,4.891 z m -5.72,-12.047 13.82,-39.688 h -27.65 z"
         style="fill:#3e3e3e;fill-opacity:1;fill-rule:nonzero;stroke:none"
         id="path64" /><path
         d="m 1537.19,682.578 c 5.59,-3.703 10.37,-3.703 11.69,-3.703 10.71,0 18.7,8.109 18.7,17.297 0,3.219 -0.95,7.734 -4.77,11.562 4.66,4.766 10.25,4.766 10.85,4.766 0.48,0 1.07,0 1.56,-0.234 -1.2,-0.485 -1.8,-1.672 -1.8,-2.985 0,-1.672 1.19,-3.109 3.1,-3.109 0.95,0 3.11,0.609 3.11,3.219 0,2.156 -1.68,5.484 -5.85,5.484 -6.2,0 -10.84,-3.812 -12.51,-5.594 -3.58,2.735 -7.75,4.282 -12.29,4.282 -10.71,0 -18.71,-8.094 -18.71,-17.282 0,-6.797 4.17,-11.203 5.37,-12.281 -1.44,-1.781 -3.58,-5.234 -3.58,-9.891 0,-6.906 4.17,-9.89 5.13,-10.484 -5.49,-1.547 -10.97,-5.844 -10.97,-12.047 0,-8.219 11.2,-15.015 25.86,-15.015 14.19,0 26,6.312 26,15.265 0,2.969 -0.85,10 -8,13.703 -6.08,3.094 -12.03,3.094 -22.28,3.094 -7.28,0 -8.11,0 -10.25,2.266 -1.21,1.203 -2.27,3.453 -2.27,5.968 0,2.016 0.72,4.047 1.91,5.719 z m 11.79,-1.187 c -10.48,0 -10.48,12.031 -10.48,14.781 0,2.141 0,7.031 2.02,10.25 2.26,3.453 5.84,4.641 8.36,4.641 10.48,0 10.48,-12.032 10.48,-14.782 0,-2.14 0,-7.031 -2.03,-10.25 -2.27,-3.453 -5.85,-4.64 -8.35,-4.64 z m 3.22,-42.328 c -11.43,0 -20.14,5.843 -20.14,12.64 0,0.953 0.24,5.594 4.77,8.703 2.62,1.672 3.69,1.672 12.05,1.672 9.89,0 23.35,0 23.35,-10.375 0,-7.031 -9.06,-12.64 -20.03,-12.64"
         style="fill:#3e3e3e;fill-opacity:1;fill-rule:nonzero;stroke:none"
         id="path66" /><path
         d="m 1628.02,692.828 c 0,6.438 0,11.203 -5.25,15.86 -4.18,3.812 -9.54,5.484 -14.79,5.484 -9.76,0 -17.28,-6.438 -17.28,-14.188 0,-3.468 2.27,-5.125 5,-5.125 2.86,0 4.89,2.016 4.89,4.875 0,4.891 -4.29,4.891 -6.07,4.891 2.75,5.016 8.46,7.156 13.23,7.156 5.48,0 12.52,-4.531 12.52,-15.265 v -4.766 c -23.97,-0.359 -33.02,-10.359 -33.02,-19.547 0,-9.422 10.97,-12.39 18.23,-12.39 7.86,0 13.24,4.765 15.5,10.484 0.47,-5.594 4.18,-9.891 9.3,-9.891 2.5,0 9.41,1.672 9.41,11.203 v 6.672 h -2.61 v -6.672 c 0,-6.796 -2.86,-7.75 -4.53,-7.75 -4.53,0 -4.53,6.313 -4.53,8.11 z m -7.75,-15.015 c 0,-11.688 -8.71,-15.625 -13.83,-15.625 -5.85,0 -10.74,4.296 -10.74,10.015 0,15.735 20.27,17.172 24.57,17.406 v -11.796"
         style="fill:#3e3e3e;fill-opacity:1;fill-rule:nonzero;stroke:none"
         id="path68" /><path
         d="m 1659.91,688.781 c 0,11.563 4.76,22.407 13.95,22.407 0.95,0 1.19,0 1.66,-0.125 -0.96,-0.469 -2.86,-1.188 -2.86,-4.407 0,-3.453 2.75,-4.765 4.65,-4.765 2.38,0 4.77,1.547 4.77,4.765 0,3.578 -3.22,6.907 -8.35,6.907 -10.12,0 -13.59,-10.954 -14.29,-13.219 h -0.13 v 13.219 l -15.97,-1.297 v -3.469 c 8.1,0 9.05,-0.828 9.05,-6.672 v -32.297 c 0,-5.375 -1.3,-5.375 -9.05,-5.375 V 661 c 3.33,0.234 9.89,0.234 13.47,0.234 3.22,0 11.67,0 14.42,-0.234 v 3.453 h -2.39 c -8.7,0 -8.93,1.313 -8.93,5.61 v 18.718"
         style="fill:#3e3e3e;fill-opacity:1;fill-rule:nonzero;stroke:none"
         id="path70" /><path
         d="m 1.19922,193.801 h 566.938 v 992.137 H 1.19922 Z"
         style="fill:url(#pattern84);fill-opacity:1;fill-rule:nonzero;stroke:none"
         id="path86" /><path
         d="m 206.125,887.969 c -0.469,1.422 -0.703,2.14 -2.375,2.14 -1.672,0 -1.906,-0.359 -2.5,-2.265 l -24.922,-71.281 c -1.672,-4.891 -5,-7.985 -12.625,-8.11 V 805 c 7.266,0.234 7.5,0.234 11.438,0.234 3.343,0 9.062,0 12.156,-0.234 v 3.453 c -5,0.125 -7.984,2.625 -7.984,5.969 0,0.703 0,0.953 0.593,2.5 l 5.485,15.859 h 30.047 l 6.546,-18.718 c 0.594,-1.438 0.594,-1.672 0.594,-2.032 0,-3.578 -6.078,-3.578 -9.062,-3.578 V 805 c 2.75,0.234 12.172,0.234 15.5,0.234 3.343,0 11.922,0 14.672,-0.234 v 3.453 c -7.75,0 -9.907,0 -11.563,4.891 z m -5.719,-12.047 13.828,-39.688 h -27.656 z"
         style="fill:#3e3e3e;fill-opacity:1;fill-rule:nonzero;stroke:none"
         id="path88" /><path
         d="m 261.188,826.578 c 5.593,-3.703 10.375,-3.703 11.687,-3.703 10.719,0 18.703,8.109 18.703,17.297 0,3.219 -0.953,7.734 -4.765,11.562 4.656,4.766 10.25,4.766 10.843,4.766 0.485,0 1.078,0 1.563,-0.234 -1.203,-0.485 -1.797,-1.672 -1.797,-2.985 0,-1.672 1.187,-3.109 3.094,-3.109 0.953,0 3.109,0.609 3.109,3.219 0,2.156 -1.672,5.484 -5.844,5.484 -6.203,0 -10.843,-3.812 -12.515,-5.594 -3.578,2.735 -7.75,4.282 -12.282,4.282 -10.718,0 -18.718,-8.094 -18.718,-17.282 0,-6.797 4.172,-11.203 5.375,-12.281 -1.438,-1.781 -3.578,-5.234 -3.578,-9.891 0,-6.906 4.171,-9.89 5.125,-10.484 -5.485,-1.547 -10.969,-5.844 -10.969,-12.047 0,-8.219 11.203,-15.015 25.859,-15.015 14.188,0 26,6.312 26,15.265 0,2.969 -0.844,10 -8,13.703 -6.078,3.094 -12.031,3.094 -22.281,3.094 -7.281,0 -8.109,0 -10.25,2.266 -1.203,1.203 -2.266,3.453 -2.266,5.968 0,2.016 0.719,4.047 1.907,5.719 z m 11.796,-1.187 c -10.484,0 -10.484,12.031 -10.484,14.781 0,2.141 0,7.031 2.016,10.25 2.265,3.453 5.843,4.641 8.359,4.641 10.484,0 10.484,-12.032 10.484,-14.782 0,-2.14 0,-7.031 -2.031,-10.25 -2.265,-3.453 -5.844,-4.64 -8.344,-4.64 z m 3.219,-42.328 c -11.437,0 -20.14,5.843 -20.14,12.64 0,0.953 0.234,5.594 4.765,8.703 2.625,1.672 3.688,1.672 12.047,1.672 9.891,0 23.359,0 23.359,-10.375 0,-7.031 -9.062,-12.64 -20.031,-12.64"
         style="fill:#3e3e3e;fill-opacity:1;fill-rule:nonzero;stroke:none"
         id="path90" /><path
         d="m 352.016,836.828 c 0,6.438 0,11.203 -5.25,15.86 -4.172,3.812 -9.532,5.484 -14.782,5.484 -9.765,0 -17.281,-6.438 -17.281,-14.188 0,-3.468 2.266,-5.125 5,-5.125 2.86,0 4.891,2.016 4.891,4.875 0,4.891 -4.297,4.891 -6.078,4.891 2.75,5.016 8.468,7.156 13.234,7.156 5.484,0 12.516,-4.531 12.516,-15.265 v -4.766 c -23.969,-0.359 -33.016,-10.359 -33.016,-19.547 0,-9.422 10.969,-12.39 18.234,-12.39 7.86,0 13.235,4.765 15.5,10.484 0.469,-5.594 4.172,-9.891 9.297,-9.891 2.5,0 9.407,1.672 9.407,11.203 v 6.672 h -2.61 v -6.672 c 0,-6.796 -2.859,-7.75 -4.531,-7.75 -4.531,0 -4.531,6.313 -4.531,8.11 z m -7.75,-15.015 c 0,-11.688 -8.703,-15.625 -13.828,-15.625 -5.844,0 -10.735,4.296 -10.735,10.015 0,15.735 20.266,17.172 24.563,17.406 v -11.796"
         style="fill:#3e3e3e;fill-opacity:1;fill-rule:nonzero;stroke:none"
         id="path92" /><path
         d="m 384.906,832.781 c 0,11.563 4.766,22.407 13.953,22.407 0.954,0 1.188,0 1.657,-0.125 -0.953,-0.469 -2.86,-1.188 -2.86,-4.407 0,-3.453 2.75,-4.765 4.657,-4.765 2.375,0 4.765,1.547 4.765,4.765 0,3.578 -3.219,6.907 -8.344,6.907 -10.125,0 -13.593,-10.954 -14.296,-13.219 h -0.125 v 13.219 l -15.969,-1.297 v -3.469 c 8.094,0 9.047,-0.828 9.047,-6.672 v -32.297 c 0,-5.375 -1.297,-5.375 -9.047,-5.375 V 805 c 3.328,0.234 9.89,0.234 13.469,0.234 3.218,0 11.671,0 14.421,-0.234 v 3.453 h -2.39 c -8.703,0 -8.938,1.313 -8.938,5.61 v 18.718"
         style="fill:#3e3e3e;fill-opacity:1;fill-rule:nonzero;stroke:none"
         id="path94" /><path
         d="m 286.563,688.531 h 32.906 c 1.656,0 3.812,0 3.812,2.157 0,2.265 -2.031,2.265 -3.812,2.265 h -32.906 v 32.891 c 0,1.672 0,3.812 -2.141,3.812 -2.266,0 -2.266,-2.015 -2.266,-3.812 V 692.953 H 249.25 c -1.672,0 -3.812,0 -3.812,-2.156 0,-2.266 2.031,-2.266 3.812,-2.266 h 32.906 v -32.89 c 0,-1.672 0,-3.813 2.141,-3.813 2.266,0 2.266,2.016 2.266,3.813 v 32.89"
         style="fill:#3e3e3e;fill-opacity:1;fill-rule:nonzero;stroke:none"
         id="path96" /><path
         d="m 308.047,600.844 c 0,1.078 -0.828,1.078 -1.078,1.078 -0.235,0 -0.719,0 -1.672,-1.188 l -8.219,-10.015 c -4.172,7.14 -10.734,11.203 -19.672,11.203 -25.75,0 -52.453,-26.109 -52.453,-54.125 0,-19.906 13.953,-32.297 31.36,-32.297 9.531,0 17.875,4.047 24.796,9.891 10.36,8.703 13.469,20.265 13.469,21.218 0,1.079 -0.953,1.079 -1.312,1.079 -1.078,0 -1.188,-0.719 -1.438,-1.204 -5.484,-18.593 -21.562,-27.531 -33.484,-27.531 -12.641,0 -23.61,8.11 -23.61,25.031 0,3.813 1.188,24.563 14.657,40.172 6.562,7.625 17.765,14.313 29.093,14.313 13.11,0 18.954,-10.86 18.954,-23.016 0,-3.094 -0.36,-5.719 -0.36,-6.187 0,-1.078 1.188,-1.078 1.547,-1.078 1.313,0 1.438,0.109 1.906,2.265 l 7.516,30.391"
         style="fill:#3e3e3e;fill-opacity:1;fill-rule:nonzero;stroke:none"
         id="path98" /><path
         d="m 313.969,526.297 c 0,6.609 0.547,12.406 3.422,17.25 2.375,3.969 6.437,7.234 11.437,7.234 1.594,0 5.25,-0.234 7.078,-3.015 -3.578,-0.157 -3.906,-2.86 -3.906,-3.735 0,-2.39 1.828,-3.734 3.734,-3.734 1.438,0 3.75,0.875 3.75,3.891 0,4.765 -3.578,8.656 -10.734,8.656 -11.047,0 -22.25,-10.485 -22.25,-27.656 0,-21.532 10.016,-26.86 17.719,-26.86 3.812,0 7.953,1.031 11.515,4.453 3.188,3.094 5.891,6.438 5.891,13.344 0,10.422 -7.875,17.734 -16.687,17.734 -5.719,0 -9.141,-3.656 -10.969,-7.562 z m 10.25,-25.578 c -4.219,0 -6.828,2.937 -8.031,5.156 -1.829,3.578 -1.985,8.984 -1.985,12 0,7.875 4.297,13.75 10.406,13.75 3.985,0 6.36,-2.062 7.875,-4.844 1.672,-2.937 1.672,-6.515 1.672,-10.562 0,-4.063 0,-7.563 -1.593,-10.422 -2.063,-3.656 -4.844,-5.078 -8.344,-5.078"
         style="fill:#3e3e3e;fill-opacity:1;fill-rule:nonzero;stroke:none"
         id="path100" /><path
         d="m 2552.41,193.801 h 566.934 v 992.137 H 2552.41 Z"
         style="fill:url(#pattern114);fill-opacity:1;fill-rule:nonzero;stroke:none"
         id="path116" /><path
         d="m 2757.13,887.969 c -0.47,1.422 -0.71,2.14 -2.38,2.14 -1.67,0 -1.91,-0.359 -2.5,-2.265 l -24.92,-71.281 c -1.67,-4.891 -5,-7.985 -12.63,-8.11 V 805 c 7.27,0.234 7.5,0.234 11.44,0.234 3.34,0 9.06,0 12.16,-0.234 v 3.453 c -5,0.125 -7.99,2.625 -7.99,5.969 0,0.703 0,0.953 0.6,2.5 l 5.48,15.859 h 30.05 l 6.54,-18.718 c 0.6,-1.438 0.6,-1.672 0.6,-2.032 0,-3.578 -6.08,-3.578 -9.06,-3.578 V 805 c 2.75,0.234 12.17,0.234 15.5,0.234 3.34,0 11.92,0 14.67,-0.234 v 3.453 c -7.75,0 -9.91,0 -11.56,4.891 z m -5.72,-12.047 13.82,-39.688 h -27.65 z"
         style="fill:#3e3e3e;fill-opacity:1;fill-rule:nonzero;stroke:none"
         id="path118" /><path
         d="m 2813.19,826.578 c 5.59,-3.703 10.37,-3.703 11.69,-3.703 10.71,0 18.7,8.109 18.7,17.297 0,3.219 -0.95,7.734 -4.77,11.562 4.66,4.766 10.25,4.766 10.85,4.766 0.48,0 1.07,0 1.56,-0.234 -1.2,-0.485 -1.8,-1.672 -1.8,-2.985 0,-1.672 1.19,-3.109 3.1,-3.109 0.95,0 3.11,0.609 3.11,3.219 0,2.156 -1.68,5.484 -5.85,5.484 -6.2,0 -10.84,-3.812 -12.51,-5.594 -3.58,2.735 -7.75,4.282 -12.29,4.282 -10.71,0 -18.71,-8.094 -18.71,-17.282 0,-6.797 4.17,-11.203 5.37,-12.281 -1.44,-1.781 -3.58,-5.234 -3.58,-9.891 0,-6.906 4.17,-9.89 5.13,-10.484 -5.49,-1.547 -10.97,-5.844 -10.97,-12.047 0,-8.219 11.2,-15.015 25.86,-15.015 14.19,0 26,6.312 26,15.265 0,2.969 -0.85,10 -8,13.703 -6.08,3.094 -12.03,3.094 -22.28,3.094 -7.28,0 -8.11,0 -10.25,2.266 -1.21,1.203 -2.27,3.453 -2.27,5.968 0,2.016 0.72,4.047 1.91,5.719 z m 11.79,-1.187 c -10.48,0 -10.48,12.031 -10.48,14.781 0,2.141 0,7.031 2.02,10.25 2.26,3.453 5.84,4.641 8.36,4.641 10.48,0 10.48,-12.032 10.48,-14.782 0,-2.14 0,-7.031 -2.03,-10.25 -2.27,-3.453 -5.85,-4.64 -8.35,-4.64 z m 3.22,-42.328 c -11.43,0 -20.14,5.843 -20.14,12.64 0,0.953 0.24,5.594 4.77,8.703 2.62,1.672 3.69,1.672 12.05,1.672 9.89,0 23.35,0 23.35,-10.375 0,-7.031 -9.06,-12.64 -20.03,-12.64"
         style="fill:#3e3e3e;fill-opacity:1;fill-rule:nonzero;stroke:none"
         id="path120" /><path
         d="m 2903.02,836.828 c 0,6.438 0,11.203 -5.25,15.86 -4.18,3.812 -9.54,5.484 -14.79,5.484 -9.76,0 -17.28,-6.438 -17.28,-14.188 0,-3.468 2.27,-5.125 5,-5.125 2.86,0 4.89,2.016 4.89,4.875 0,4.891 -4.29,4.891 -6.07,4.891 2.75,5.016 8.46,7.156 13.23,7.156 5.48,0 12.52,-4.531 12.52,-15.265 v -4.766 c -23.97,-0.359 -33.02,-10.359 -33.02,-19.547 0,-9.422 10.97,-12.39 18.23,-12.39 7.86,0 13.24,4.765 15.5,10.484 0.47,-5.594 4.18,-9.891 9.3,-9.891 2.5,0 9.41,1.672 9.41,11.203 v 6.672 h -2.61 v -6.672 c 0,-6.796 -2.86,-7.75 -4.53,-7.75 -4.53,0 -4.53,6.313 -4.53,8.11 z m -7.75,-15.015 c 0,-11.688 -8.71,-15.625 -13.83,-15.625 -5.85,0 -10.74,4.296 -10.74,10.015 0,15.735 20.27,17.172 24.57,17.406 v -11.796"
         style="fill:#3e3e3e;fill-opacity:1;fill-rule:nonzero;stroke:none"
         id="path122" /><path
         d="m 2935.91,832.781 c 0,11.563 4.76,22.407 13.95,22.407 0.95,0 1.19,0 1.66,-0.125 -0.96,-0.469 -2.86,-1.188 -2.86,-4.407 0,-3.453 2.75,-4.765 4.65,-4.765 2.38,0 4.77,1.547 4.77,4.765 0,3.578 -3.22,6.907 -8.35,6.907 -10.12,0 -13.59,-10.954 -14.29,-13.219 h -0.13 v 13.219 l -15.97,-1.297 v -3.469 c 8.1,0 9.05,-0.828 9.05,-6.672 v -32.297 c 0,-5.375 -1.3,-5.375 -9.05,-5.375 V 805 c 3.33,0.234 9.89,0.234 13.47,0.234 3.22,0 11.67,0 14.42,-0.234 v 3.453 h -2.39 c -8.7,0 -8.93,1.313 -8.93,5.61 v 18.718"
         style="fill:#3e3e3e;fill-opacity:1;fill-rule:nonzero;stroke:none"
         id="path124" /><path
         d="m 2837.56,688.531 h 32.91 c 1.66,0 3.81,0 3.81,2.157 0,2.265 -2.03,2.265 -3.81,2.265 h -32.91 v 32.891 c 0,1.672 0,3.812 -2.14,3.812 -2.26,0 -2.26,-2.015 -2.26,-3.812 v -32.891 h -32.91 c -1.67,0 -3.81,0 -3.81,-2.156 0,-2.266 2.03,-2.266 3.81,-2.266 h 32.91 v -32.89 c 0,-1.672 0,-3.813 2.14,-3.813 2.26,0 2.26,2.016 2.26,3.813 v 32.89"
         style="fill:#3e3e3e;fill-opacity:1;fill-rule:nonzero;stroke:none"
         id="path126" /><path
         d="m 2838.05,600.844 c 0,1.078 -0.83,1.078 -1.08,1.078 -0.24,0 -0.72,0 -1.67,-1.188 l -8.22,-10.015 c -4.17,7.14 -10.74,11.203 -19.67,11.203 -25.75,0 -52.46,-26.109 -52.46,-54.125 0,-19.906 13.96,-32.297 31.36,-32.297 9.53,0 17.88,4.047 24.8,9.891 10.36,8.703 13.47,20.265 13.47,21.218 0,1.079 -0.95,1.079 -1.31,1.079 -1.08,0 -1.19,-0.719 -1.44,-1.204 -5.49,-18.593 -21.56,-27.531 -33.49,-27.531 -12.64,0 -23.61,8.11 -23.61,25.031 0,3.813 1.19,24.563 14.66,40.172 6.56,7.625 17.77,14.313 29.09,14.313 13.11,0 18.96,-10.86 18.96,-23.016 0,-3.094 -0.36,-5.719 -0.36,-6.187 0,-1.078 1.19,-1.078 1.55,-1.078 1.31,0 1.43,0.109 1.9,2.265 l 7.52,30.391"
         style="fill:#3e3e3e;fill-opacity:1;fill-rule:nonzero;stroke:none"
         id="path128" /><path
         d="m 2857.95,550.625 c 0,2.141 -0.15,2.219 -2.29,2.219 -3.27,-3.172 -7.49,-5.078 -15.03,-5.078 v -2.625 c 2.15,0 6.43,0 11.04,2.14 v -40.765 c 0,-2.938 -0.23,-3.891 -7.78,-3.891 h -2.78 V 500 c 3.25,0.234 10.09,0.234 13.67,0.234 3.56,0 10.49,0 13.74,-0.234 v 2.625 h -2.79 c -7.54,0 -7.78,0.953 -7.78,3.891 v 44.109"
         style="fill:#3e3e3e;fill-opacity:1;fill-rule:nonzero;stroke:none"
         id="path130" /><path
         d="m 2897.41,516.219 c 1.28,1.187 4.61,3.812 5.89,4.922 4.92,4.531 9.61,8.906 9.61,16.125 0,9.468 -7.96,15.578 -17.88,15.578 -9.55,0 -15.81,-7.235 -15.81,-14.297 0,-3.891 3.09,-4.453 4.2,-4.453 1.67,0 4.14,1.187 4.14,4.203 0,4.141 -3.98,4.141 -4.93,4.141 2.31,5.796 7.64,7.781 11.53,7.781 7.39,0 11.2,-6.266 11.2,-12.953 0,-8.266 -5.8,-14.297 -15.19,-23.922 l -10,-10.328 c -0.95,-0.875 -0.95,-1.032 -0.95,-3.016 h 31.39 l 2.3,14.219 h -2.47 c -0.24,-1.578 -0.88,-5.563 -1.83,-7.063 -0.47,-0.64 -6.52,-0.64 -7.78,-0.64 h -14.14 l 10.72,9.703"
         style="fill:#3e3e3e;fill-opacity:1;fill-rule:nonzero;stroke:none"
         id="path132" /><path
         d="M 9.76953,122.934 H 3110.78"
         style="fill:none;stroke:#ffffff;stroke-width:3.985;stroke-linecap:butt;stroke-linejoin:miter;stroke-miterlimit:10;stroke-dasharray:none;stroke-opacity:1"
         id="path134" /><path
         d="m 21.7227,106.992 c -0.9961,5.977 -11.95317,14.946 -14.94536,15.942 2.99219,0.996 13.94926,9.961 14.94536,15.941"
         style="fill:none;stroke:#ffffff;stroke-width:3.1879;stroke-linecap:round;stroke-linejoin:round;stroke-miterlimit:10;stroke-dasharray:none;stroke-opacity:1"
         id="path136" /><path
         d="M 3.19141,148.836 V 97.0313"
         style="fill:none;stroke:#ffffff;stroke-width:3.985;stroke-linecap:square;stroke-linejoin:miter;stroke-miterlimit:10;stroke-dasharray:none;stroke-opacity:1"
         id="path138" /><path
         d="m 3098.82,138.875 c 1,-5.98 11.96,-14.945 14.95,-15.941 -2.99,-0.996 -13.95,-9.965 -14.95,-15.942"
         style="fill:none;stroke:#ffffff;stroke-width:3.1879;stroke-linecap:round;stroke-linejoin:round;stroke-miterlimit:10;stroke-dasharray:none;stroke-opacity:1"
         id="path140" /><path
         d="M 3117.36,97.0313 V 148.836"
         style="fill:none;stroke:#ffffff;stroke-width:3.985;stroke-linecap:square;stroke-linejoin:miter;stroke-miterlimit:10;stroke-dasharray:none;stroke-opacity:1"
         id="path142" /><path
         d="m 1563.75,72.2344 c 1.08,4.5312 1.42,5.7187 11.92,5.7187 3.22,0 4.05,0 4.05,2.2657 0,1.2031 -1.31,1.2031 -1.78,1.2031 -2.39,0 -5.13,-0.25 -7.52,-0.25 h -15.97 c -2.26,0 -4.89,0.25 -7.15,0.25 -0.96,0 -2.27,0 -2.27,-2.2656 0,-1.2032 1.08,-1.2032 2.86,-1.2032 7.28,0 7.28,-0.9531 7.28,-2.2656 0,-0.2344 0,-0.9531 -0.48,-2.7344 l -16.1,-64.12497 c -1.07,-4.17188 -1.31,-5.375 -9.65,-5.375 -2.27,0 -3.46,0 -3.46,-2.14063 C 1525.48,0 1526.2,0 1528.58,0 h 53.4 c 2.63,0 2.75,0.125 3.58,2.26563 l 9.17,25.39067 c 0.25,0.5937 0.49,1.3125 0.49,1.6718 0,0.7188 -0.59,1.1875 -1.19,1.1875 -0.12,0 -0.72,0 -0.95,-0.4687 -0.25,-0.125 -0.25,-0.3594 -1.2,-2.625 -3.82,-10.5 -9.18,-23.96877 -29.32,-23.96877 h -11.45 c -1.67,0 -1.91,0 -2.63,0.125 -1.31,0.125 -1.42,0.35937 -1.42,1.3125 0,0.82812 0.24,1.54687 0.47,2.625 l 16.22,64.71877"
         style="fill:#ffffff;fill-opacity:1;fill-rule:nonzero;stroke:none"
         id="path144" /><path
         d="M 9.76953,264.668 H 559.57"
         style="fill:none;stroke:#3e3e3e;stroke-width:3.985;stroke-linecap:butt;stroke-linejoin:miter;stroke-miterlimit:10;stroke-dasharray:none;stroke-opacity:1"
         id="path146" /><path
         d="m 21.7227,248.727 c -0.9961,5.976 -11.95317,14.945 -14.94536,15.941 2.99219,0.996 13.94926,9.961 14.94536,15.937"
         style="fill:none;stroke:#3e3e3e;stroke-width:3.1879;stroke-linecap:round;stroke-linejoin:round;stroke-miterlimit:10;stroke-dasharray:none;stroke-opacity:1"
         id="path148" /><path
         d="M 3.19141,290.57 V 238.766"
         style="fill:none;stroke:#3e3e3e;stroke-width:3.985;stroke-linecap:square;stroke-linejoin:miter;stroke-miterlimit:10;stroke-dasharray:none;stroke-opacity:1"
         id="path150" /><path
         d="m 547.613,280.605 c 0.996,-5.976 11.957,-14.941 14.946,-15.937 -2.989,-0.996 -13.95,-9.965 -14.946,-15.941"
         style="fill:none;stroke:#3e3e3e;stroke-width:3.1879;stroke-linecap:round;stroke-linejoin:round;stroke-miterlimit:10;stroke-dasharray:none;stroke-opacity:1"
         id="path152" /><path
         d="M 566.145,238.766 V 290.57"
         style="fill:none;stroke:#3e3e3e;stroke-width:3.985;stroke-linecap:square;stroke-linejoin:miter;stroke-miterlimit:10;stroke-dasharray:none;stroke-opacity:1"
         id="path154" /><path
         d="m 296.281,385.75 c 0.11,0.469 0.36,1.188 0.36,1.781 0,1.203 -1.203,1.203 -1.438,1.203 -0.125,0 -4.406,-0.359 -6.547,-0.609 -2.031,-0.109 -3.828,-0.344 -5.968,-0.469 -2.86,-0.234 -3.688,-0.359 -3.688,-2.5 0,-1.203 1.188,-1.203 2.375,-1.203 6.078,0 6.078,-1.062 6.078,-2.265 0,-0.469 0,-0.704 -0.594,-2.86 l -14.781,-59.125 c -0.359,-1.312 -0.594,-2.265 -0.594,-4.172 0,-5.953 4.407,-10.718 10.485,-10.718 3.937,0 6.562,2.625 8.469,6.312 2.031,3.938 3.687,11.438 3.687,11.922 0,0.594 -0.469,1.078 -1.187,1.078 -1.063,0 -1.188,-0.609 -1.672,-2.391 -2.141,-8.218 -4.282,-14.546 -9.047,-14.546 -3.578,0 -3.578,3.812 -3.578,5.484 0,0.484 0,2.984 0.828,6.328 l 16.812,66.75"
         style="fill:#3e3e3e;fill-opacity:1;fill-rule:nonzero;stroke:none"
         id="path156" /><path
         d="m 2560.98,264.668 h 549.8"
         style="fill:none;stroke:#3e3e3e;stroke-width:3.985;stroke-linecap:butt;stroke-linejoin:miter;stroke-miterlimit:10;stroke-dasharray:none;stroke-opacity:1"
         id="path158" /><path
         d="m 2572.93,248.727 c -0.99,5.976 -11.95,14.945 -14.94,15.941 2.99,0.996 13.95,9.961 14.94,15.937"
         style="fill:none;stroke:#3e3e3e;stroke-width:3.1879;stroke-linecap:round;stroke-linejoin:round;stroke-miterlimit:10;stroke-dasharray:none;stroke-opacity:1"
         id="path160" /><path
         d="M 2554.41,290.57 V 238.766"
         style="fill:none;stroke:#3e3e3e;stroke-width:3.985;stroke-linecap:square;stroke-linejoin:miter;stroke-miterlimit:10;stroke-dasharray:none;stroke-opacity:1"
         id="path162" /><path
         d="m 3098.82,280.605 c 1,-5.976 11.96,-14.941 14.95,-15.937 -2.99,-0.996 -13.95,-9.965 -14.95,-15.941"
         style="fill:none;stroke:#3e3e3e;stroke-width:3.1879;stroke-linecap:round;stroke-linejoin:round;stroke-miterlimit:10;stroke-dasharray:none;stroke-opacity:1"
         id="path164" /><path
         d="M 3117.36,238.766 V 290.57"
         style="fill:none;stroke:#3e3e3e;stroke-width:3.985;stroke-linecap:square;stroke-linejoin:miter;stroke-miterlimit:10;stroke-dasharray:none;stroke-opacity:1"
         id="path166" /><path
         d="m 2847.28,385.75 c 0.11,0.469 0.36,1.188 0.36,1.781 0,1.203 -1.2,1.203 -1.44,1.203 -0.12,0 -4.4,-0.359 -6.54,-0.609 -2.03,-0.109 -3.83,-0.344 -5.97,-0.469 -2.86,-0.234 -3.69,-0.359 -3.69,-2.5 0,-1.203 1.19,-1.203 2.38,-1.203 6.07,0 6.07,-1.062 6.07,-2.265 0,-0.469 0,-0.704 -0.59,-2.86 l -14.78,-59.125 c -0.36,-1.312 -0.6,-2.265 -0.6,-4.172 0,-5.953 4.41,-10.718 10.49,-10.718 3.94,0 6.56,2.625 8.47,6.312 2.03,3.938 3.69,11.438 3.69,11.922 0,0.594 -0.47,1.078 -1.19,1.078 -1.06,0 -1.19,-0.609 -1.67,-2.391 -2.14,-8.218 -4.29,-14.546 -9.05,-14.546 -3.58,0 -3.58,3.812 -3.58,5.484 0,0.484 0,2.984 0.83,6.328 l 16.81,66.75"
         style="fill:#3e3e3e;fill-opacity:1;fill-rule:nonzero;stroke:none"
         id="path168" /></g></g></svg>
